<svg width="24" height="24" viewBox="0 0 24 24" fill="none" xmlns="http://www.w3.org/2000/svg">
<g clip-path="url(#clip0_74_39891)">
<g clip-path="url(#clip1_74_39891)">
<path d="M23.687 12.2244C23.687 11.2412 23.6074 10.5236 23.4351 9.77954H12.2324V14.2175H18.8081C18.6756 15.3204 17.9597 16.9814 16.3688 18.0975L16.3465 18.246L19.8886 20.9962L20.134 21.0208C22.3877 18.9346 23.687 15.8652 23.687 12.2244Z" fill="#4285F4"/>
<path d="M12.2324 23.9176C15.454 23.9176 18.1585 22.8545 20.1339 21.0209L16.3687 18.0976C15.3612 18.8018 14.0089 19.2934 12.2324 19.2934C9.0771 19.2934 6.39909 17.2074 5.44445 14.324L5.30452 14.3359L1.62141 17.1927L1.57324 17.3269C3.53535 21.2334 7.56567 23.9176 12.2324 23.9176Z" fill="#34A853"/>
<path d="M5.44469 14.324C5.1928 13.58 5.04702 12.7826 5.04702 11.9589C5.04702 11.135 5.1928 10.3378 5.43143 9.59366L5.42476 9.43519L1.6955 6.53247L1.57348 6.59064C0.764803 8.21174 0.300781 10.0322 0.300781 11.9589C0.300781 13.8855 0.764803 15.7059 1.57348 17.327L5.44469 14.324Z" fill="#FBBC05"/>
<path d="M12.2324 4.62403C14.4729 4.62403 15.9842 5.59401 16.846 6.40461L20.2134 3.10928C18.1453 1.1826 15.454 0 12.2324 0C7.56567 0 3.53535 2.68406 1.57324 6.59056L5.43119 9.59359C6.39909 6.7102 9.0771 4.62403 12.2324 4.62403Z" fill="#EB4335"/>
</g>
</g>
<defs>
<clipPath id="clip0_74_39891">
<rect width="24" height="24" fill="white"/>
</clipPath>
<clipPath id="clip1_74_39891">
<rect width="23.4" height="24" fill="white" transform="translate(0.299805)"/>
</clipPath>
</defs>
</svg>
