<svg width="20" height="20" viewBox="0 0 20 20" fill="none" xmlns="http://www.w3.org/2000/svg">
<g clip-path="url(#clip0_345_9504)">
<path d="M4.31212 15.6879C3.11132 14.4871 3.11132 12.5349 4.31212 11.3341L7.121 8.52522L5.78679 7.191L2.9779 9.99988C1.03977 11.938 1.03977 15.084 2.9779 17.0221C4.91603 18.9602 8.06198 18.9602 10.0001 17.0221L12.809 14.2132L11.4748 12.879L8.66589 15.6879C7.46509 16.8887 5.51292 16.8887 4.31212 15.6879ZM7.89345 13.511L13.5112 7.89322L12.1068 6.48878L6.48901 12.1065L7.89345 13.511ZM10.0001 2.97767L7.19123 5.78656L8.52545 7.12078L11.3343 4.31189C12.5351 3.1111 14.4873 3.1111 15.6881 4.31189C16.8889 5.51269 16.8889 7.46487 15.6881 8.66566L12.8792 11.4745L14.2134 12.8088L17.0223 9.99988C18.9604 8.06175 18.9604 4.9158 17.0223 2.97767C15.0842 1.03955 11.9382 1.03954 10.0001 2.97767Z" fill="white"/>
</g>
<defs>
<clipPath id="clip0_345_9504">
<rect width="20" height="20" fill="white"/>
</clipPath>
</defs>
</svg>
