<svg width="18" height="20" viewBox="0 0 18 20" fill="none" xmlns="http://www.w3.org/2000/svg">
<path d="M1.5 18.3333L0.541186 18.0493C0.451574 18.3518 0.509973 18.6788 0.69874 18.9316C0.887507 19.1844 1.1845 19.3333 1.5 19.3333L1.5 18.3333ZM16.5 18.3333V19.3333C16.8155 19.3333 17.1125 19.1844 17.3013 18.9316C17.49 18.6788 17.5484 18.3518 17.4588 18.0493L16.5 18.3333ZM12.1667 5.83329C12.1667 7.58219 10.7489 8.99996 9 8.99996V11C11.8535 11 14.1667 8.68676 14.1667 5.83329H12.1667ZM9 8.99996C7.2511 8.99996 5.83333 7.58219 5.83333 5.83329H3.83333C3.83333 8.68676 6.14653 11 9 11V8.99996ZM5.83333 5.83329C5.83333 4.08439 7.2511 2.66663 9 2.66663V0.666626C6.14653 0.666626 3.83333 2.97982 3.83333 5.83329H5.83333ZM9 2.66663C10.7489 2.66663 12.1667 4.08439 12.1667 5.83329H14.1667C14.1667 2.97982 11.8535 0.666626 9 0.666626V2.66663ZM2.45881 18.6173C3.34787 15.6161 5.96868 13.5 9 13.5V11.5C4.99263 11.5 1.65523 14.2886 0.541186 18.0493L2.45881 18.6173ZM9 13.5C12.0313 13.5 14.6521 15.6161 15.5412 18.6173L17.4588 18.0493C16.3448 14.2886 13.0074 11.5 9 11.5V13.5ZM1.5 19.3333H16.5V17.3333H1.5V19.3333Z" fill="white"/>
</svg>
